HIERARCHY
ROOT root
{
	OFFSET 0.000000 0.000000 0.000000
	CHANNELS 6 Xposition Yposition Zposition Zrotation Yrotation Xrotation
	JOINT lhip
	{
		OFFSET 0.058581 -0.082280 -0.017664
		CHANNELS 3 Zrotation Yrotation Xrotation
		JOINT lknee
		{
			OFFSET 0.043451 -0.386469 0.008037
			CHANNELS 3 Zrotation Yrotation Xrotation
			JOINT lankle
			{
				OFFSET -0.014790 -0.426874 -0.037428
				CHANNELS 3 Zrotation Yrotation Xrotation
				JOINT ltoe
				{
					OFFSET 0.041054 -0.060286 0.122042
					CHANNELS 3 Zrotation Yrotation Xrotation
					End Site
					{
						OFFSET 0.000000 0.000000 0.000000
					}
				}
			}
		}
	}
	JOINT rhip
	{
		OFFSET -0.060310 -0.090513 -0.013543
		CHANNELS 3 Zrotation Yrotation Xrotation
		JOINT rknee
		{
			OFFSET -0.043257 -0.383688 -0.004843
			CHANNELS 3 Zrotation Yrotation Xrotation
			JOINT rankle
			{
				OFFSET 0.019056 -0.420046 -0.034562
				CHANNELS 3 Zrotation Yrotation Xrotation
				JOINT rtoe
				{
					OFFSET -0.034840 -0.062106 0.130323
					CHANNELS 3 Zrotation Yrotation Xrotation
					End Site
					{
						OFFSET 0.000000 0.000000 0.000000
					}
				}
			}
		}
	}
	JOINT lowerback
	{
		OFFSET 0.004439 0.124404 -0.038385
		CHANNELS 3 Zrotation Yrotation Xrotation
		JOINT upperback
		{
			OFFSET 0.004488 0.137956 0.026820
			CHANNELS 3 Zrotation Yrotation Xrotation
			JOINT chest
			{
				OFFSET -0.002265 0.056032 0.002855
				CHANNELS 3 Zrotation Yrotation Xrotation
				JOINT lowerneck
				{
					OFFSET -0.013390 0.211636 -0.033468
					CHANNELS 3 Zrotation Yrotation Xrotation
					JOINT upperneck
					{
						OFFSET 0.010113 0.088937 0.050410
						CHANNELS 3 Zrotation Yrotation Xrotation
						End Site
						{
							OFFSET 0.000000 0.000000 0.000000
						}
					}
				}
				JOINT lclavicle
				{
					OFFSET 0.071702 0.114000 -0.018898
					CHANNELS 3 Zrotation Yrotation Xrotation
					JOINT lshoulder
					{
						OFFSET 0.122921 0.045205 -0.019046
						CHANNELS 3 Zrotation Yrotation Xrotation
						JOINT lelbow
						{
							OFFSET 0.255332 -0.015649 -0.022946
							CHANNELS 3 Zrotation Yrotation Xrotation
							JOINT lwrist
							{
								OFFSET 0.265709 0.012698 -0.007375
								CHANNELS 3 Zrotation Yrotation Xrotation
								End Site
								{
									OFFSET 0.000000 0.000000 0.000000
								}
							}
						}
					}
				}
				JOINT rclavicle
				{
					OFFSET -0.082954 0.112472 -0.023707
					CHANNELS 3 Zrotation Yrotation Xrotation
					JOINT rshoulder
					{
						OFFSET -0.113228 0.046853 -0.008472
						CHANNELS 3 Zrotation Yrotation Xrotation
						JOINT relbow
						{
							OFFSET -0.260127 -0.014369 -0.031269
							CHANNELS 3 Zrotation Yrotation Xrotation
							JOINT rwrist
							{
								OFFSET -0.269108 0.006794 -0.006027
								CHANNELS 3 Zrotation Yrotation Xrotation
								End Site
								{
									OFFSET 0.000000 0.000000 0.000000
								}
							}
						}
					}
				}
			}
		}
	}
}
MOTION
Frames: 14
Frame Time: 0.033333
-1.393785 1.103052 0.960635 54.673706 -4.142374 86.332971 5.117449 -1.663409 -11.431761 -0.597026 -5.667715 16.041590 -0.236518 9.871174 -13.959680 0.000000 -0.000000 0.000000 7.254449 -5.566242 3.990353 -5.365950 0.085325 -4.988852 -4.257626 -11.648417 -17.508527 0.000000 -0.000000 0.000000 0.936699 4.687596 10.731086 -1.725015 -0.768031 -0.135449 0.936762 1.727430 0.438752 -4.858040 4.961112 1.039178 2.047823 2.737984 3.034487 -19.601929 5.352214 3.323740 -62.040323 -3.019019 5.730303 10.406043 -30.248097 -6.761185 21.526766 -12.102892 -26.669921 18.538583 1.327741 5.075270 60.127405 0.731250 12.186958 -6.967939 31.423549 3.072506 -11.293443 8.827872 -10.815443 
-1.395548 1.104766 0.961065 54.854994 -4.430013 86.088092 4.614702 -1.538491 -11.319829 -0.291917 -5.751089 15.882058 -0.499178 9.606124 -13.693847 0.000000 -0.000000 0.000000 6.797018 -5.561365 3.759652 -5.235677 -0.255791 -4.331466 -3.399104 -11.299291 -17.850741 0.000000 -0.000000 0.000000 0.683027 4.621208 12.086315 -1.869760 -0.685855 -1.123269 0.982273 1.763687 1.494514 -5.065323 4.782480 -0.397255 2.181436 3.207687 2.909970 -19.260900 5.350811 3.089641 -62.185421 -2.934291 5.970912 10.946318 -31.893968 -7.248774 30.048676 -13.532921 -24.880441 17.878863 1.187307 4.694892 60.855522 0.424268 12.324008 -6.341851 31.931213 2.683727 -14.953392 8.708706 -11.642055 
-1.397126 1.106015 0.961484 54.890176 -4.483661 86.048913 4.472580 -1.446393 -11.380247 -0.151118 -5.905831 15.737959 -0.579798 9.559046 -13.445538 0.000000 -0.000000 0.000000 6.842266 -5.349987 3.217234 -5.428624 -0.457805 -3.470939 -3.099924 -11.500991 -18.256876 0.000000 -0.000000 0.000000 0.585943 4.535191 12.806420 -1.901623 -0.619014 -0.997606 1.016091 1.696498 1.767707 -5.267647 5.272365 -1.350018 2.099309 3.535836 2.318337 -18.810910 5.322945 3.271300 -62.432096 -2.328027 6.244232 10.813379 -33.253632 -6.096143 31.376052 -13.181912 -24.306559 17.588252 1.325441 4.767223 61.270860 0.279414 12.304362 -6.334885 32.379713 2.269442 -15.717052 8.200167 -12.204532 
-1.399327 1.107794 0.961748 54.829550 -4.475036 85.978966 4.265975 -1.348501 -11.499351 0.249008 -6.027203 15.755850 -0.994525 9.539429 -13.132227 0.000000 -0.000000 0.000000 6.955810 -5.327435 2.625311 -5.558771 -0.480154 -2.645823 -2.863680 -11.627472 -18.435420 0.000000 -0.000000 0.000000 0.453894 4.437129 13.763383 -1.877111 -0.572714 -0.605225 1.135164 1.747351 2.143177 -5.620408 5.601808 -2.733292 1.792052 3.582498 1.440358 -17.979688 5.299774 3.384654 -62.510787 -1.651118 6.916845 9.036733 -35.038508 -3.527809 33.308238 -13.409718 -24.138140 17.164207 1.556085 4.751909 61.450588 0.425429 12.354645 -5.573135 32.405286 2.124029 -16.874402 7.897172 -12.567381 
-1.401359 1.109614 0.962169 55.158855 -4.528782 86.218402 4.200538 -1.672629 -12.219922 0.065165 -6.089054 16.062779 -0.622332 9.749323 -12.366386 0.000000 -0.000000 0.000000 6.936706 -5.019235 1.824184 -5.513109 -0.458116 -1.965547 -3.221027 -12.209694 -18.315034 0.000000 -0.000000 0.000000 0.276207 4.320436 14.194611 -1.723258 -0.710767 -0.420556 1.159642 1.650813 2.353809 -5.916983 5.931386 -3.686216 1.493731 3.490826 0.637121 -17.279804 4.828055 3.993637 -62.287907 -0.848105 7.790594 6.724970 -36.074838 -0.377504 26.559567 -10.717370 -26.372220 16.900083 1.922775 5.000487 61.602673 0.266588 12.746740 -6.167778 33.022796 1.446864 -14.341839 7.164221 -13.355264 
-1.404370 1.111721 0.963802 55.417801 -4.616967 85.887735 4.057570 -1.638187 -12.351797 -0.008921 -5.716625 16.321671 -0.805962 9.901717 -11.657338 0.000000 -0.000000 0.000000 7.073432 -4.825537 1.448181 -5.862791 -0.629010 -0.966225 -3.187679 -12.602791 -18.354404 0.000000 -0.000000 0.000000 -0.001536 4.367243 15.534418 -1.663858 -0.756563 -0.069542 1.332221 1.585832 2.498437 -6.141190 6.342405 -5.078974 1.249491 3.511617 -0.186294 -17.073731 4.099627 4.313835 -61.406358 -0.371380 8.172507 4.538727 -37.324997 2.372739 26.624163 -11.204493 -25.420327 16.904702 2.538528 5.159805 61.260396 0.039160 12.700386 -5.648143 33.396111 1.098406 -15.266829 7.255702 -13.514698 
-1.406790 1.113716 0.964700 55.846980 -4.531069 85.729028 4.123755 -1.160546 -13.209957 -0.430444 -4.652113 17.469680 -1.051258 9.814202 -11.186101 0.000000 -0.000000 0.000000 7.225883 -4.757229 0.988786 -5.940703 -1.029109 -0.192756 -3.137732 -13.064559 -18.887336 0.000000 -0.000000 0.000000 0.057220 4.367006 16.479022 -1.574646 -0.876487 0.573380 1.343005 1.452250 2.702040 -6.594938 6.794500 -6.426222 1.050021 3.336323 -1.431561 -16.553789 3.539703 4.557792 -60.273013 0.037943 8.303637 1.852766 -38.474310 5.824238 25.477025 -12.928074 -24.215310 16.554835 2.923211 5.347037 61.112613 -0.000202 12.448738 -4.795574 33.950581 1.119170 -15.238450 7.189069 -13.814525 
-1.410145 1.116185 0.965360 56.806429 -4.373347 85.761345 4.358911 -1.295633 -14.825849 -1.041029 -2.620560 19.294847 -0.726518 10.160607 -10.657795 0.000000 -0.000000 0.000000 7.427880 -4.715061 0.294643 -5.979416 -1.477651 0.476312 -3.273492 -13.804511 -18.875818 0.000000 -0.000000 0.000000 0.042628 4.254918 17.590536 -1.327218 -1.272769 0.740819 1.522539 1.243404 2.935718 -7.162870 6.939853 -7.411891 0.855373 3.683334 -2.648188 -15.819447 2.970012 4.973121 -59.649184 0.640271 8.834790 -1.246764 -39.966079 8.839506 24.659580 -12.413960 -24.886492 15.877785 3.005919 5.397972 60.891247 -0.114125 12.542544 -3.564176 34.680613 1.736038 -15.513655 6.781635 -13.839783 
-1.412454 1.118785 0.965792 57.542526 -4.370718 85.495610 4.006938 -0.655083 -16.007310 -1.109728 -0.287028 21.298858 -0.196002 11.285315 -10.618768 0.000000 -0.000000 0.000000 7.324853 -4.829989 0.150637 -5.911017 -1.723949 0.773074 -3.514374 -14.097547 -18.900378 0.000000 -0.000000 0.000000 0.221978 4.138636 18.018131 -1.452408 -1.807764 2.481462 1.298091 1.466741 3.113204 -7.326518 7.218453 -8.973319 0.900205 3.614982 -3.519062 -14.942182 1.968921 5.060015 -59.061828 0.916855 9.175671 -3.149212 -40.975044 10.722343 24.672002 -12.197547 -25.044643 15.747103 3.767529 5.397220 60.845506 0.010730 12.543998 -3.482437 34.982268 1.195572 -15.935999 6.589920 -13.424449 
-1.414751 1.120957 0.966491 58.100105 -4.275881 85.506747 3.926289 0.189210 -17.478895 -1.095736 3.466803 23.700314 -0.041441 12.705247 -11.630558 0.000000 -0.000000 0.000000 7.380068 -5.055380 -0.272838 -5.905010 -2.102163 1.081495 -3.271230 -14.176463 -18.933888 0.000000 -0.000000 0.000000 0.226108 4.383936 19.663280 -1.423956 -1.830497 2.035573 1.483927 1.421356 3.435336 -7.733818 6.988921 -9.650558 0.973971 3.817227 -4.708089 -14.788195 1.267020 5.253609 -58.036149 1.301345 9.032327 -5.074820 -41.230131 12.792006 25.443945 -13.414367 -23.877252 15.499920 4.204168 5.715954 60.370551 -0.413219 12.320863 -2.415318 35.107301 1.862334 -16.566774 6.836440 -13.020883 
-1.416257 1.122788 0.967174 58.622060 -4.169184 85.542230 3.725897 0.849389 -18.306135 -0.844448 6.390038 24.986062 0.508976 13.911502 -12.289498 0.000000 -0.000000 0.000000 7.537039 -4.832379 -0.715101 -6.085107 -2.578942 1.585201 -3.477793 -14.236928 -18.859947 0.000000 -0.000000 0.000000 0.252135 4.281557 20.661321 -1.469174 -1.859513 1.982888 1.513558 1.635792 3.696739 -7.792181 6.810697 -9.953938 0.940600 3.931240 -5.810013 -14.882376 0.869632 5.145939 -57.066036 1.427274 8.847440 -5.576087 -41.101648 14.100204 23.437383 -14.341356 -22.401635 15.289727 4.500863 5.945775 60.235339 -0.497675 12.188116 -1.801254 35.294666 2.158911 -16.023401 7.160545 -13.510141 
-1.417051 1.124476 0.967852 59.112551 -4.050018 85.882192 3.457857 1.575847 -19.287650 -0.821227 8.460858 25.999520 0.805993 14.317976 -12.505774 0.000000 -0.000000 0.000000 7.568548 -4.707647 -1.456739 -6.069189 -2.959071 2.073013 -3.269870 -14.278591 -18.966602 0.000000 -0.000000 0.000000 0.241791 4.612227 20.956346 -1.355867 -1.523074 2.396431 1.709905 1.304696 3.820527 -8.028345 6.518360 -10.286397 0.881463 3.983574 -6.600689 -15.128596 0.163521 5.463675 -56.524550 1.249546 8.516338 -5.311504 -40.965575 14.066679 23.221997 -15.176191 -21.317992 15.062767 4.861042 6.099757 59.885228 -0.646742 11.969832 -0.886955 35.117855 2.472796 -16.587656 7.314901 -13.716614 
-1.417256 1.125777 0.967961 59.673333 -3.944585 86.303259 3.089426 2.045946 -19.769043 -0.967938 10.264797 25.661820 1.102777 14.684119 -12.879240 0.000000 -0.000000 0.000000 7.607816 -4.728877 -2.111532 -6.026188 -3.404986 2.239050 -3.443618 -14.329940 -18.756361 0.000000 -0.000000 0.000000 0.201048 4.634095 21.335243 -1.351992 -1.534434 2.613403 1.788209 1.296532 3.583262 -8.224576 6.246830 -10.299780 0.863018 4.168060 -7.672047 -14.962853 -0.266127 5.589703 -56.198355 1.572818 8.554285 -5.674526 -40.680927 14.405435 22.921422 -15.468313 -21.290752 14.820568 5.258243 6.581409 59.963691 -0.677891 11.969231 -0.573067 35.022872 2.908488 -16.024102 7.485522 -13.694578 
-1.416277 1.127002 0.968387 60.329567 -3.728137 86.410620 2.663884 2.530995 -19.683208 -1.124227 11.206469 25.031505 1.371437 14.954869 -12.968572 0.000000 -0.000000 0.000000 7.778057 -4.723870 -2.202275 -6.069045 -3.661399 2.173038 -3.788494 -14.544786 -18.456714 0.000000 -0.000000 0.000000 0.495357 4.451176 21.764550 -1.468212 -1.559112 2.752073 1.832297 1.145787 3.709719 -8.601480 6.152797 -10.332660 0.697682 4.718336 -8.885045 -15.079382 -0.662193 5.852798 -55.776272 1.803911 8.131786 -5.882022 -40.569745 14.486766 21.888909 -15.405304 -20.997633 14.482628 5.728705 6.588611 60.006246 -0.805458 11.972549 0.324411 34.957436 3.289896 -16.156985 7.657393 -13.778809 
